<?xml version="1.0" encoding="UTF-8" standalone="no"?>
<svg
   xmlns:dc="http://purl.org/dc/elements/1.1/"
   xmlns:cc="http://creativecommons.org/ns#"
   xmlns:rdf="http://www.w3.org/1999/02/22-rdf-syntax-ns#"
   xmlns:svg="http://www.w3.org/2000/svg"
   xmlns="http://www.w3.org/2000/svg"
   xmlns:sodipodi="http://sodipodi.sourceforge.net/DTD/sodipodi-0.dtd"
   xmlns:inkscape="http://www.inkscape.org/namespaces/inkscape"
   version="1.1"
   id="Layer_1"
   x="0px"
   y="0px"
   viewBox="0 0 288 224.3"
   sodipodi:docname="clubhouse.svg"
   width="288"
   height="224.3"
   inkscape:version="1.0.2-2 (e86c870879, 2021-01-15)">
  <metadata
     id="metadata48">
    <rdf:RDF>
      <cc:Work
         rdf:about="">
        <dc:format>image/svg+xml</dc:format>
        <dc:type
           rdf:resource="http://purl.org/dc/dcmitype/StillImage" />
        <dc:title></dc:title>
      </cc:Work>
    </rdf:RDF>
  </metadata>
  <defs
     id="defs46" />
  <sodipodi:namedview
     pagecolor="#ffffff"
     bordercolor="#666666"
     borderopacity="1"
     objecttolerance="10"
     gridtolerance="10"
     guidetolerance="10"
     inkscape:pageopacity="0"
     inkscape:pageshadow="2"
     inkscape:window-width="1068"
     inkscape:window-height="704"
     id="namedview44"
     showgrid="false"
     inkscape:pagecheckerboard="true"
     inkscape:zoom="0.52173677"
     inkscape:cx="-169.18333"
     inkscape:cy="96.266595"
     inkscape:window-x="367"
     inkscape:window-y="235"
     inkscape:window-maximized="0"
     inkscape:current-layer="Layer_1">
    <inkscape:grid
       type="xygrid"
       id="grid50"
       originx="-144"
       originy="-175.8" />
  </sodipodi:namedview>
  <style
     type="text/css"
     id="style30">
	.st0{fill:#FFFFFF;}
</style>
  <g
     id="Logo"
     transform="translate(-144,-175.8)">
    <g
       id="g40">
      <g
         id="g38">
        <g
           id="g34">
          <path
             class="st0"
             d="m 164.9,358.3 c -11.5,0 -20.9,9.4 -20.9,20.9 0,11.5 9.4,20.9 20.9,20.9 11.5,0 20.9,-9.4 20.9,-20.9 0,-11.5 -9.3,-20.9 -20.9,-20.9 z"
             id="path32" />
        </g>
        <path
           class="st0"
           d="m 422.2,175.8 -131.6,42 v -41.5 l -141.9,45.3 v 120.3 l 122.4,-39.1 v 41.3 L 432,292.8 388.4,250.2 Z M 271.1,282.2 168.3,315 v -79.1 l 102.8,-32.8 z m 124.5,1.7 -105,33.5 v -79 l 96.7,-30.9 -22.2,46.8 z"
           id="path36" />
      </g>
    </g>
  </g>
</svg>
